<svg xmlns="http://www.w3.org/2000/svg" width="190.038" height="42" viewBox="0 0 190.038 42"><g transform="translate(0 0)"><path d="M292.339,31.724A20.993,20.993,0,0,1,272.055,5.292l.022-.088a20.953,20.953,0,0,1,34.3-10.042h0a8.583,8.583,0,0,1,.609,12.111c-.094.105-.19.206-.289.305l-3.169,3.174,3.141,3.144a8.661,8.661,0,0,1,2.52,6.275,8.334,8.334,0,0,1-2.708,6.016A20.869,20.869,0,0,1,292.339,31.724Zm.043-39.115A18.272,18.272,0,0,0,274.849,5.957a18.1,18.1,0,0,0,29.695,18.11,5.486,5.486,0,0,0,1.777-3.959,5.768,5.768,0,0,0-1.679-4.183L301.5,12.779,297.883,16.4a8.461,8.461,0,0,1-5.586,2.3,7.927,7.927,0,0,1-7.945-7.909c0-.133,0-.267.008-.4a7.986,7.986,0,0,1,7.951-7.6h.231a7.757,7.757,0,0,1,5.365,2.32l3.6,3.6,3.167-3.174a5.7,5.7,0,0,0-.008-8.057c-.067-.067-.137-.133-.207-.2h0a18.15,18.15,0,0,0-7.977-4.2,17.7,17.7,0,0,0-4.1-.475Zm-.064,13.058a5.165,5.165,0,0,0-5.089,4.851,5.054,5.054,0,0,0,4.789,5.3c.094.006.187.007.28.007a5.57,5.57,0,0,0,3.549-1.449l3.626-3.632-3.7-3.707a4.818,4.818,0,0,0-3.318-1.371Z" transform="translate(-271.335 10.276)" fill="#7f74eb"/></g><g transform="translate(49.292 12.539)"><g transform="translate(52.534 4.32)"><path d="M343.969,8.371V8.329c0-2.232,1.845-3.423,4.532-3.423a11.292,11.292,0,0,1,3.261.45V4.989c0-1.909-1.169-2.892-3.159-2.892a6.6,6.6,0,0,0-2.747.594.844.844,0,0,1-.288.062.7.7,0,0,1-.7-.677.72.72,0,0,1,.432-.656A8.381,8.381,0,0,1,348.768.7a4.65,4.65,0,0,1,3.426,1.171,4.183,4.183,0,0,1,1.088,3.1v5.8a.75.75,0,0,1-.72.777h-.041a.724.724,0,0,1-.756-.693c0-.014,0-.028,0-.043V9.846a4.644,4.644,0,0,1-3.836,1.824c-1.967,0-3.96-1.125-3.96-3.3m7.811-.822V6.525a11.028,11.028,0,0,0-3.114-.453c-1.992,0-3.1.865-3.1,2.2v.038c0,1.333,1.23,2.115,2.664,2.115,1.95,0,3.548-1.192,3.548-2.874" transform="translate(-343.968 -0.689)" fill="#474a59"/></g><g transform="translate(64.41 1.189)"><g transform="translate(12.322 2.732)"><path d="M361.708,9.3l2.808-3.32-2.564-2.952a1.807,1.807,0,0,1-.514-1.191A1.391,1.391,0,0,1,362.782.406h.094a1.789,1.789,0,0,1,1.457.8l2.03,2.708,2.071-2.708a1.8,1.8,0,0,1,1.353-.8,1.377,1.377,0,0,1,1.452,1.3l0,.056a1.649,1.649,0,0,1-.432,1.067l-2.664,3.116,2.747,3.16a1.792,1.792,0,0,1,.513,1.188,1.391,1.391,0,0,1-1.346,1.436c-.031,0-.06,0-.089,0a1.79,1.79,0,0,1-1.458-.8L366.3,8.015l-2.217,2.912a1.794,1.794,0,0,1-1.352.8,1.379,1.379,0,0,1-1.455-1.3v-.056a1.555,1.555,0,0,1,.432-1.068" transform="translate(-361.279 -0.403)" fill="#474a59"/></g><g transform="translate(24.758 2.689)"><path d="M370.176,2.017a1.559,1.559,0,0,1,3.117,0v.144A4.045,4.045,0,0,1,376.718.373c2.564,0,5.007,2.013,5.007,5.682V6.1c0,3.672-2.4,5.679-5.007,5.679a4.222,4.222,0,0,1-3.425-1.64v3.279a1.559,1.559,0,0,1-3.117,0ZM378.6,6.1V6.057a2.7,2.7,0,1,0-5.349,0V6.1a2.7,2.7,0,1,0,5.349,0" transform="translate(-370.176 -0.373)" fill="#474a59"/></g><g transform="translate(50.666 2.775)"><path d="M388.711,1.993a1.557,1.557,0,1,1,3.114,0v.493c.452-1.067,1.19-2.052,2.114-2.052a1.506,1.506,0,0,1,.347,2.974c-1.578.369-2.46,1.578-2.46,3.792v2.913a1.557,1.557,0,1,1-3.114,0Z" transform="translate(-388.711 -0.434)" fill="#474a59"/></g><g transform="translate(58.583)"><path d="M395.748,9.22V4.014h-.1a1.334,1.334,0,0,1,0-2.664h.1V-.025a1.56,1.56,0,0,1,1.592-1.526,1.558,1.558,0,0,1,1.526,1.526V1.35h1.375a1.334,1.334,0,0,1,0,2.664h-1.375V8.706c0,.721.309,1.068,1.005,1.068.1,0,.307-.02.37-.02a1.3,1.3,0,0,1,1.292,1.3,1.264,1.264,0,0,1-.8,1.167,4.583,4.583,0,0,1-1.785.309c-1.908,0-3.2-.758-3.2-3.3" transform="translate(-394.375 1.551)" fill="#474a59"/></g><g transform="translate(67.43 2.755)"><path d="M401.3,10.492a1.235,1.235,0,0,1,.629-2.29,1.221,1.221,0,0,1,.615.164,5.753,5.753,0,0,0,2.963.978c.9,0,1.307-.324,1.307-.814V8.488c0-.672-1.061-.9-2.267-1.265-1.532-.451-3.269-1.164-3.269-3.29V3.894c0-2.228,1.8-3.474,4-3.474a7.681,7.681,0,0,1,3.392.839,1.262,1.262,0,0,1,.734,1.164,1.224,1.224,0,0,1-1.224,1.224h-.021a1.128,1.128,0,0,1-.57-.144,5.84,5.84,0,0,0-2.376-.695c-.755,0-1.141.327-1.141.756v.041c0,.614,1.04.9,2.227,1.307,1.531.512,3.311,1.248,3.311,3.248V8.2c0,2.431-1.82,3.534-4.188,3.534a7.636,7.636,0,0,1-4.126-1.245" transform="translate(-400.704 -0.42)" fill="#474a59"/></g><g transform="translate(38.13 2.667)"><path d="M388.5,8.366a1.172,1.172,0,0,0-.76.245,3.6,3.6,0,0,1-2.213.739,2.544,2.544,0,0,1-2.288-1.157l-.024-.034c-.031-.049-.055-.1-.082-.157-.043-.078-.078-.158-.113-.236l-.049-.126a9.884,9.884,0,0,0,4.927-.865,3.353,3.353,0,0,0,1.252-4.392c-.6-1.238-1.745-2.027-3.775-2.027a5.683,5.683,0,0,0-5.635,5.728v.088a5.5,5.5,0,0,0,5.31,5.683c.144.006.287,0,.431,0a5.691,5.691,0,0,0,3.816-1.333,1.223,1.223,0,0,0,.411-.924,1.191,1.191,0,0,0-1.15-1.229H388.5m-5.472-3.931.028-.073a2.7,2.7,0,0,1,2.376-1.589c.217,0,1.328-.068,1.539.883.194.874-.637,1.849-4.2,1.827.01-.077.018-.164.032-.236a3.81,3.81,0,0,1,.225-.812" transform="translate(-379.743 -0.357)" fill="#474a59"/></g><g transform="translate(0 2.667)"><path d="M361.223,8.366a1.165,1.165,0,0,0-.758.245,3.6,3.6,0,0,1-2.216.739,2.544,2.544,0,0,1-2.285-1.157l-.024-.034c-.032-.049-.054-.1-.082-.157a2.573,2.573,0,0,1-.112-.236l-.053-.126a9.9,9.9,0,0,0,4.93-.865,3.351,3.351,0,0,0,1.25-4.392C361.279,1.145,360.128.357,358.1.357a5.681,5.681,0,0,0-5.633,5.73v.087a5.5,5.5,0,0,0,5.307,5.683c.145.006.289,0,.435,0a5.7,5.7,0,0,0,3.816-1.333,1.233,1.233,0,0,0,.411-.924,1.191,1.191,0,0,0-1.152-1.229h-.06m-5.47-3.931.029-.073a2.7,2.7,0,0,1,2.376-1.589c.217,0,1.327-.068,1.538.883.194.874-.636,1.849-4.2,1.827.011-.077.02-.164.034-.236a3.721,3.721,0,0,1,.224-.812" transform="translate(-352.464 -0.357)" fill="#474a59"/></g></g><g transform="translate(0 4.302)"><path d="M306.384,6.252V6.211a5.508,5.508,0,0,1,9.326-4,.745.745,0,0,1,.246.554.755.755,0,0,1-.755.758h0a.81.81,0,0,1-.513-.185A4.089,4.089,0,0,0,311.8,2.07,3.911,3.911,0,0,0,308,6.092l0,.077v.042a3.96,3.96,0,0,0,3.8,4.116l.1,0a4.235,4.235,0,0,0,2.952-1.292.625.625,0,0,1,.451-.2.738.738,0,0,1,.72.72.711.711,0,0,1-.2.491,5.328,5.328,0,0,1-4,1.7A5.439,5.439,0,0,1,306.384,6.3Z" transform="translate(-306.384 -0.676)" fill="#474a59"/></g><g transform="translate(12.583)"><path d="M315.389-1.542a.792.792,0,0,1,.721-.857.794.794,0,0,1,.857.723.725.725,0,0,1,0,.134V12.026a.772.772,0,0,1-.741.8h-.038a.787.787,0,0,1-.8-.774V-1.542Z" transform="translate(-315.386 2.402)" fill="#474a59"/></g><g transform="translate(18.058 0.081)"><path d="M319.3,2.8a.789.789,0,0,1,1.578-.022V12a.771.771,0,0,1-.742.8.316.316,0,0,1-.036,0,.787.787,0,0,1-.8-.774V2.8Zm.369-2.5a.546.546,0,0,1,.1-.309L321-1.873a.871.871,0,0,1,.738-.471c.492,0,1.107.328,1.107.615a.744.744,0,0,1-.288.471L321.024.2a1.16,1.16,0,0,1-.963.389c-.225,0-.389-.123-.389-.287Z" transform="translate(-319.303 2.344)" fill="#474a59"/></g><g transform="translate(23.386 4.304)"><path d="M323.115,1.6a.79.79,0,0,1,1.579-.022V2.749a4.012,4.012,0,0,1,3.627-2.07c2.562,0,4.059,1.722,4.059,4.242V10.8a.793.793,0,1,1-1.579.134,1.058,1.058,0,0,1,0-.134V5.311c0-1.968-1.065-3.2-2.93-3.2a3.117,3.117,0,0,0-3.184,3.05c0,.091,0,.18.007.27V10.8a.772.772,0,0,1-.742.8h-.038a.787.787,0,0,1-.8-.774V1.6Z" transform="translate(-323.115 -0.677)" fill="#474a59"/></g><g transform="translate(36.095 0.354)"><path d="M332.207-1.3a.935.935,0,0,1,1.015-.85.935.935,0,0,1,.85.85v.267a.934.934,0,0,1-1.013.85.934.934,0,0,1-.851-.85Zm.144,4.017a.789.789,0,0,1,1.578-.022v9.227a.769.769,0,0,1-.741.8.341.341,0,0,1-.038,0,.787.787,0,0,1-.8-.774V2.722Z" transform="translate(-332.207 2.149)" fill="#474a59"/></g><g transform="translate(40.912 4.302)"><path d="M335.653,6.252V6.211a5.507,5.507,0,0,1,9.325-4,.739.739,0,0,1,.247.554.757.757,0,0,1-.758.758h0a.806.806,0,0,1-.512-.185,4.1,4.1,0,0,0-2.891-1.271,3.909,3.909,0,0,0-3.794,4.021l0,.078v.042a3.96,3.96,0,0,0,3.8,4.116l.1,0a4.24,4.24,0,0,0,2.952-1.292.62.62,0,0,1,.45-.2.74.74,0,0,1,.72.72.708.708,0,0,1-.206.491,5.328,5.328,0,0,1-4,1.7A5.438,5.438,0,0,1,335.653,6.3Z" transform="translate(-335.653 -0.676)" fill="#474a59"/></g><g transform="translate(52.554 4.369)"><path d="M343.982,8.4V8.363c0-2.232,1.845-3.423,4.53-3.423a11.267,11.267,0,0,1,3.258.451V5.024c0-1.907-1.167-2.892-3.156-2.892a6.615,6.615,0,0,0-2.745.6.825.825,0,0,1-.289.062.7.7,0,0,1-.7-.678.725.725,0,0,1,.432-.656,8.374,8.374,0,0,1,3.464-.72A4.65,4.65,0,0,1,352.2,1.9,4.176,4.176,0,0,1,353.289,5v5.8a.749.749,0,0,1-.719.779h-.039a.725.725,0,0,1-.758-.695c0-.014,0-.029,0-.043V9.88a4.641,4.641,0,0,1-3.833,1.824C345.971,11.705,343.982,10.577,343.982,8.4Zm7.809-.82V6.56a11.094,11.094,0,0,0-3.116-.45c-1.988,0-3.1.864-3.1,2.193v.041c0,1.332,1.23,2.112,2.664,2.112C350.192,10.455,351.791,9.266,351.791,7.584Z" transform="translate(-343.982 -0.724)" fill="#474a59"/></g></g></svg>